# xmcd
#
# Track frame offsets:
#	150
#	14150
#	33366
#	51461
#	69398
#	82144
#	97332
#	124365
#	139265
#	155564
#	170847
#	187750
#	218692
#	235405
#	252777
#
# Disc length: 3554 seconds
#
# Revision: 2
# Processed by: cddbd v1.5.2PL0 Copyright (c) Steve Scherf et al.
# Submitted via: audiograbber 1.83.01
#
DISCID=e30de00f
DTITLE=Various Artist - Insel Sause (Coverversion)
DYEAR=2005
DGENRE=Party
TTITLE0=DJ Coverman - Played A Live
TTITLE1=DJ Coverman - You're My Mate
TTITLE2=DJ Coverman - Country Roads
TTITLE3=DJ Coverman - Sauladen
TTITLE4=DJ Coverman - Dann sind die Hände da
TTITLE5=DJ Coverman - Geh doch zu Hause ...
TTITLE6=DJ Coverman - DJ Ötzi-Mix
TTITLE7=DJ Coverman - Stangenfieber
TTITLE8=DJ Coverman - Mendocino
TTITLE9=DJ Coverman - Ich hab drei Haare auf der Brust
TTITLE10=DJ Coverman - Blau von den Bergen kommen wir
TTITLE11=DJ Coverman - Slatko Mix
TTITLE12=DJ Coverman - Party, Palmen, Weiber und 'n Bier
TTITLE13=DJ Coverman - Do Wha diddy (Version 2001)
TTITLE14=DJ Coverman - Whole Again
EXTD=
EXTT0=
EXTT1=
EXTT2=
EXTT3=
EXTT4=
EXTT5=
EXTT6=
EXTT7=
EXTT8=
EXTT9=
EXTT10=
EXTT11=
EXTT12=
EXTT13=
EXTT14=
PLAYORDER=
